# xmcd
# 
# Track frame offsets:
#     150
#     21762
#     41471
#     63074
# 
# Disc length: 1101
# 
# Revision: 10
# Processed by: cddbd v1.5.2PL0 Copyright (c) Steve Scherf et al.
# Submitted via: fre:ac v1.0.27
# 
DISCID=25044b04
DTITLE=坂本冬美 - また君に恋してる／アジアの海賊
DYEAR=2009
DGENRE=演歌
TTITLE0=アジアの海賊
TTITLE1=また君に恋してる
TTITLE2=アジアの海賊 (オリジナルカラオケ)
TTITLE3=また君に恋してる (オリジナルカラオケ)
EXTD=
EXTT0=
EXTT1=
EXTT2=
EXTT3=
PLAYORDER=
